<svg width="30" height="30" viewBox="0 0 60 60" fill="none" xmlns="http://www.w3.org/2000/svg">
<path d="M55.9583 0.833496H4.04168C3.19077 0.833496 2.37472 1.17152 1.77304 1.7732C1.17136 2.37487 0.833344 3.19093 0.833344 4.04183V55.9585C0.833344 56.8094 1.17136 57.6255 1.77304 58.2271C2.37472 58.8288 3.19077 59.1668 4.04168 59.1668H31.9833V36.5627H24.4V27.8127H31.9833V21.2502C31.8263 19.7095 32.0082 18.153 32.5163 16.6901C33.0244 15.2271 33.8464 13.893 34.9247 12.7814C36.003 11.6697 37.3114 10.8074 38.7583 10.255C40.2051 9.7026 41.7552 9.4734 43.3 9.5835C45.5701 9.56953 47.8392 9.68639 50.0958 9.9335V17.8085H45.4583C41.7833 17.8085 41.0833 19.5585 41.0833 22.096V27.7252H49.8333L48.6958 36.4752H41.0833V59.1668H55.9583C56.3797 59.1668 56.7969 59.0838 57.1861 58.9226C57.5754 58.7614 57.9291 58.5251 58.227 58.2271C58.5249 57.9292 58.7612 57.5755 58.9225 57.1863C59.0837 56.797 59.1667 56.3798 59.1667 55.9585V4.04183C59.1667 3.6205 59.0837 3.20331 58.9225 2.81405C58.7612 2.4248 58.5249 2.07112 58.227 1.7732C57.9291 1.47527 57.5754 1.23895 57.1861 1.07772C56.7969 0.916482 56.3797 0.833496 55.9583 0.833496Z" fill="#F5F5F4"/>
</svg>